<svg xmlns="http://www.w3.org/2000/svg" width="820" height="604" style="background:#0f172a;font-family:'SF Mono','Fira Code',monospace;">
  <text x="20" y="28" fill="#e2e8f0" font-size="15" font-weight="bold">Semantic Retention — Codeflow vs Raw Body</text>
  <text x="20" y="46" fill="#94a3b8" font-size="11">Judge: Gemini 2.5 Flash · 70 functions · Pass A (CF metadata) / Pass B (raw source) · avg 69%</text>
  <line x1="260" y1="50" x2="260" y2="564" stroke="#1e293b" stroke-width="1"/>
  <text x="260" y="46" fill="#94a3b8" font-size="10" text-anchor="middle">0%</text>
  <line x1="370" y1="50" x2="370" y2="564" stroke="#1e293b" stroke-width="1"/>
  <text x="370" y="46" fill="#94a3b8" font-size="10" text-anchor="middle">25%</text>
  <line x1="480" y1="50" x2="480" y2="564" stroke="#1e293b" stroke-width="1"/>
  <text x="480" y="46" fill="#94a3b8" font-size="10" text-anchor="middle">50%</text>
  <line x1="590" y1="50" x2="590" y2="564" stroke="#1e293b" stroke-width="1"/>
  <text x="590" y="46" fill="#94a3b8" font-size="10" text-anchor="middle">75%</text>
  <line x1="700" y1="50" x2="700" y2="564" stroke="#1e293b" stroke-width="1"/>
  <text x="700" y="46" fill="#94a3b8" font-size="10" text-anchor="middle">100%</text>
  <rect x="0" y="60" width="820" height="36" fill="#ffffff08"/>
  <text x="250" y="83" fill="#e2e8f0" font-size="11.5" text-anchor="end">psf/requests</text>
  <rect x="260" y="68" width="396" height="20" rx="3" fill="#22c55e" opacity="0.9"/>
  <text x="664" y="83" fill="#22c55e" font-size="11.5" font-weight="bold">90.0%</text>
  <text x="250" y="119" fill="#e2e8f0" font-size="11.5" text-anchor="end">Textualize/rich</text>
  <rect x="260" y="104" width="365" height="20" rx="3" fill="#22c55e" opacity="0.9"/>
  <text x="633" y="119" fill="#22c55e" font-size="11.5" font-weight="bold">83.0%</text>
  <rect x="0" y="132" width="820" height="36" fill="#ffffff08"/>
  <text x="250" y="155" fill="#e2e8f0" font-size="11.5" text-anchor="end">pallets/flask</text>
  <rect x="260" y="140" width="352" height="20" rx="3" fill="#22c55e" opacity="0.9"/>
  <text x="620" y="155" fill="#22c55e" font-size="11.5" font-weight="bold">80.0%</text>
  <text x="250" y="191" fill="#e2e8f0" font-size="11.5" text-anchor="end">fastapi/full-stack-fastapi-template</text>
  <rect x="260" y="176" width="338" height="20" rx="3" fill="#22c55e" opacity="0.9"/>
  <text x="606" y="191" fill="#22c55e" font-size="11.5" font-weight="bold">77.0%</text>
  <rect x="0" y="204" width="820" height="36" fill="#ffffff08"/>
  <text x="250" y="227" fill="#e2e8f0" font-size="11.5" text-anchor="end">anthropics/anthropic-sdk-python</text>
  <rect x="260" y="212" width="325" height="20" rx="3" fill="#22c55e" opacity="0.9"/>
  <text x="593" y="227" fill="#22c55e" font-size="11.5" font-weight="bold">74.0%</text>
  <text x="250" y="263" fill="#e2e8f0" font-size="11.5" text-anchor="end">encode/httpx</text>
  <rect x="260" y="248" width="316" height="20" rx="3" fill="#22c55e" opacity="0.9"/>
  <text x="584" y="263" fill="#22c55e" font-size="11.5" font-weight="bold">72.0%</text>
  <rect x="0" y="276" width="820" height="36" fill="#ffffff08"/>
  <text x="250" y="299" fill="#e2e8f0" font-size="11.5" text-anchor="end">pallets/click</text>
  <rect x="260" y="284" width="308" height="20" rx="3" fill="#22c55e" opacity="0.9"/>
  <text x="576" y="299" fill="#22c55e" font-size="11.5" font-weight="bold">70.0%</text>
  <text x="250" y="335" fill="#e2e8f0" font-size="11.5" text-anchor="end">encode/starlette</text>
  <rect x="260" y="320" width="308" height="20" rx="3" fill="#22c55e" opacity="0.9"/>
  <text x="576" y="335" fill="#22c55e" font-size="11.5" font-weight="bold">70.0%</text>
  <rect x="0" y="348" width="820" height="36" fill="#ffffff08"/>
  <text x="250" y="371" fill="#e2e8f0" font-size="11.5" text-anchor="end">tiangolo/fastapi</text>
  <rect x="260" y="356" width="308" height="20" rx="3" fill="#22c55e" opacity="0.9"/>
  <text x="576" y="371" fill="#22c55e" font-size="11.5" font-weight="bold">70.0%</text>
  <text x="250" y="407" fill="#e2e8f0" font-size="11.5" text-anchor="end">sqlalchemy/sqlalchemy</text>
  <rect x="260" y="392" width="281" height="20" rx="3" fill="#4ade80" opacity="0.9"/>
  <text x="549" y="407" fill="#4ade80" font-size="11.5" font-weight="bold">64.0%</text>
  <rect x="0" y="420" width="820" height="36" fill="#ffffff08"/>
  <text x="250" y="443" fill="#e2e8f0" font-size="11.5" text-anchor="end">openai/openai-python</text>
  <rect x="260" y="428" width="272" height="20" rx="3" fill="#4ade80" opacity="0.9"/>
  <text x="540" y="443" fill="#4ade80" font-size="11.5" font-weight="bold">62.0%</text>
  <text x="250" y="479" fill="#e2e8f0" font-size="11.5" text-anchor="end">pydantic/pydantic</text>
  <rect x="260" y="464" width="246" height="20" rx="3" fill="#4ade80" opacity="0.9"/>
  <text x="514" y="479" fill="#4ade80" font-size="11.5" font-weight="bold">56.0%</text>
  <rect x="0" y="492" width="820" height="36" fill="#ffffff08"/>
  <text x="250" y="515" fill="#e2e8f0" font-size="11.5" text-anchor="end">zauberzeug/nicegui</text>
  <rect x="260" y="500" width="237" height="20" rx="3" fill="#4ade80" opacity="0.9"/>
  <text x="505" y="515" fill="#4ade80" font-size="11.5" font-weight="bold">54.0%</text>
  <text x="250" y="551" fill="#e2e8f0" font-size="11.5" text-anchor="end">httpie/httpie</text>
  <rect x="260" y="536" width="198" height="20" rx="3" fill="#4ade80" opacity="0.9"/>
  <text x="466" y="551" fill="#4ade80" font-size="11.5" font-weight="bold">45.0%</text>
</svg>