<svg xmlns="http://www.w3.org/2000/svg" width="820" height="604" style="background:#0f172a;font-family:'SF Mono','Fira Code',monospace;">
  <text x="20" y="28" fill="#e2e8f0" font-size="15" font-weight="bold">Token Savings — Codeflow vs Raw Source</text>
  <text x="20" y="46" fill="#94a3b8" font-size="11">cl100k_base tokenizer · 14 repos · 2,300,430 raw tokens → 1,470,738 CF tokens (36.1% avg savings)</text>
  <line x1="260" y1="50" x2="260" y2="564" stroke="#1e293b" stroke-width="1"/>
  <text x="260" y="46" fill="#94a3b8" font-size="10" text-anchor="middle">0%</text>
  <line x1="370" y1="50" x2="370" y2="564" stroke="#1e293b" stroke-width="1"/>
  <text x="370" y="46" fill="#94a3b8" font-size="10" text-anchor="middle">25%</text>
  <line x1="480" y1="50" x2="480" y2="564" stroke="#1e293b" stroke-width="1"/>
  <text x="480" y="46" fill="#94a3b8" font-size="10" text-anchor="middle">50%</text>
  <line x1="590" y1="50" x2="590" y2="564" stroke="#1e293b" stroke-width="1"/>
  <text x="590" y="46" fill="#94a3b8" font-size="10" text-anchor="middle">75%</text>
  <line x1="700" y1="50" x2="700" y2="564" stroke="#1e293b" stroke-width="1"/>
  <text x="700" y="46" fill="#94a3b8" font-size="10" text-anchor="middle">100%</text>
  <rect x="0" y="60" width="820" height="36" fill="#ffffff08"/>
  <text x="250" y="83" fill="#e2e8f0" font-size="11.5" text-anchor="end">Textualize/rich</text>
  <rect x="260" y="68" width="344" height="20" rx="3" fill="#22c55e" opacity="0.9"/>
  <text x="612" y="83" fill="#22c55e" font-size="11.5" font-weight="bold">78.3%</text>
  <text x="250" y="119" fill="#e2e8f0" font-size="11.5" text-anchor="end">fastapi/full-stack-fastapi-template</text>
  <rect x="260" y="104" width="256" height="20" rx="3" fill="#4ade80" opacity="0.9"/>
  <text x="524" y="119" fill="#4ade80" font-size="11.5" font-weight="bold">58.3%</text>
  <rect x="0" y="132" width="820" height="36" fill="#ffffff08"/>
  <text x="250" y="155" fill="#e2e8f0" font-size="11.5" text-anchor="end">pydantic/pydantic</text>
  <rect x="260" y="140" width="212" height="20" rx="3" fill="#4ade80" opacity="0.9"/>
  <text x="480" y="155" fill="#4ade80" font-size="11.5" font-weight="bold">48.3%</text>
  <text x="250" y="191" fill="#e2e8f0" font-size="11.5" text-anchor="end">sqlalchemy/sqlalchemy</text>
  <rect x="260" y="176" width="187" height="20" rx="3" fill="#4ade80" opacity="0.9"/>
  <text x="455" y="191" fill="#4ade80" font-size="11.5" font-weight="bold">42.6%</text>
  <rect x="0" y="204" width="820" height="36" fill="#ffffff08"/>
  <text x="250" y="227" fill="#e2e8f0" font-size="11.5" text-anchor="end">zauberzeug/nicegui</text>
  <rect x="260" y="212" width="184" height="20" rx="3" fill="#4ade80" opacity="0.9"/>
  <text x="452" y="227" fill="#4ade80" font-size="11.5" font-weight="bold">42.0%</text>
  <text x="250" y="263" fill="#e2e8f0" font-size="11.5" text-anchor="end">encode/httpx</text>
  <rect x="260" y="248" width="175" height="20" rx="3" fill="#4ade80" opacity="0.9"/>
  <text x="443" y="263" fill="#4ade80" font-size="11.5" font-weight="bold">39.8%</text>
  <rect x="0" y="276" width="820" height="36" fill="#ffffff08"/>
  <text x="250" y="299" fill="#e2e8f0" font-size="11.5" text-anchor="end">psf/requests</text>
  <rect x="260" y="284" width="138" height="20" rx="3" fill="#4ade80" opacity="0.9"/>
  <text x="406" y="299" fill="#4ade80" font-size="11.5" font-weight="bold">31.4%</text>
  <text x="250" y="335" fill="#e2e8f0" font-size="11.5" text-anchor="end">anthropics/anthropic-sdk-python</text>
  <rect x="260" y="320" width="105" height="20" rx="3" fill="#4ade80" opacity="0.9"/>
  <text x="373" y="335" fill="#4ade80" font-size="11.5" font-weight="bold">24.0%</text>
  <rect x="0" y="348" width="820" height="36" fill="#ffffff08"/>
  <text x="250" y="371" fill="#e2e8f0" font-size="11.5" text-anchor="end">pallets/click</text>
  <rect x="260" y="356" width="104" height="20" rx="3" fill="#4ade80" opacity="0.9"/>
  <text x="372" y="371" fill="#4ade80" font-size="11.5" font-weight="bold">23.8%</text>
  <text x="250" y="407" fill="#e2e8f0" font-size="11.5" text-anchor="end">httpie/httpie</text>
  <rect x="260" y="392" width="96" height="20" rx="3" fill="#4ade80" opacity="0.9"/>
  <text x="364" y="407" fill="#4ade80" font-size="11.5" font-weight="bold">21.9%</text>
  <rect x="0" y="420" width="820" height="36" fill="#ffffff08"/>
  <text x="250" y="443" fill="#e2e8f0" font-size="11.5" text-anchor="end">pallets/flask</text>
  <rect x="260" y="428" width="69" height="20" rx="3" fill="#4ade80" opacity="0.9"/>
  <text x="337" y="443" fill="#4ade80" font-size="11.5" font-weight="bold">15.9%</text>
  <text x="250" y="479" fill="#e2e8f0" font-size="11.5" text-anchor="end">encode/starlette</text>
  <rect x="260" y="464" width="17" height="20" rx="3" fill="#4ade80" opacity="0.9"/>
  <text x="285" y="479" fill="#4ade80" font-size="11.5" font-weight="bold">3.9%</text>
  <rect x="0" y="492" width="820" height="36" fill="#ffffff08"/>
  <text x="250" y="515" fill="#e2e8f0" font-size="11.5" text-anchor="end">openai/openai-python</text>
  <rect x="260" y="500" width="4" height="20" rx="3" fill="#4ade80" opacity="0.9"/>
  <text x="272" y="515" fill="#4ade80" font-size="11.5" font-weight="bold">1.1%</text>
  <text x="250" y="551" fill="#e2e8f0" font-size="11.5" text-anchor="end">tiangolo/fastapi</text>
  <rect x="260" y="536" width="28" height="20" rx="3" fill="#f87171" opacity="0.9"/>
  <text x="296" y="551" fill="#f87171" font-size="11.5" font-weight="bold">-6.4%</text>
</svg>